<?xml version="1.0" encoding="UTF-8"?>
<svg width="29.7cm" height="21cm" clip-rule="evenodd" fill-rule="evenodd" image-rendering="optimizeQuality" shape-rendering="geometricPrecision" text-rendering="geometricPrecision" version="1.1" viewBox="0 0 29700 21000" xml:space="preserve" xmlns="http://www.w3.org/2000/svg" xmlns:cc="http://creativecommons.org/ns#" xmlns:dc="http://purl.org/dc/elements/1.1/" xmlns:rdf="http://www.w3.org/1999/02/22-rdf-syntax-ns#"><metadata><rdf:RDF><cc:Work rdf:about=""><dc:format>image/svg+xml</dc:format><dc:type rdf:resource="http://purl.org/dc/dcmitype/StillImage"/><dc:title/></cc:Work></rdf:RDF></metadata>
 <defs>
  <style type="text/css">
   <![CDATA[
    .str0 {stroke:#FFFBD6;stroke-width:20}
    .str1 {stroke:#B9BBBD;stroke-width:7.62}
    .fil14 {fill:#FEFEFE}
    .fil13 {fill:#FDFDFD}
    .fil12 {fill:#FBFBFB}
    .fil11 {fill:#FAFAFA}
    .fil10 {fill:#F9F9F9}
    .fil9 {fill:#F8F8F8}
    .fil8 {fill:#F7F7F7}
    .fil7 {fill:#F6F6F6}
    .fil6 {fill:whitesmoke}
    .fil5 {fill:#F4F4F5}
    .fil4 {fill:#F3F3F4}
    .fil3 {fill:#F2F3F3}
    .fil2 {fill:#F1F2F2}
    .fil1 {fill:#F1F1F2}
    .fil21 {fill:#FFCC29}
    .fil16 {fill:#4E5A62}
    .fil22 {fill:#4E5A62}
    .fil15 {fill:#44C1C3}
    .fil0 {fill:url(#id2)}
    .fil19 {fill:url(#id3)}
    .fil20 {fill:url(#id4)}
    .fil17 {fill:url(#id5)}
    .fil18 {fill:url(#id6)}
   ]]>
  </style>
    
    <clipPath id="id1">
     <path d="m10091 11529c1150-141 1380-626 1668-1263 329-763 329-1520-2-2271-1221-2374-4282 3269-1666 3534z"/>
    </clipPath>
  <linearGradient id="id2" x1="8404.5" x2="11546" y1="7361.2" y2="10550" gradientUnits="userSpaceOnUse">
   <stop stop-color="#FFCC29" offset="0"/>
   <stop stop-color="#FFF2BF" offset=".41961"/>
   <stop stop-color="#FFFBD6" offset="1"/>
  </linearGradient>
  <linearGradient id="id3" x1="8837" x2="9935.5" y1="8691.7" y2="8633.1" gradientUnits="userSpaceOnUse">
   <stop stop-color="#727376" offset="0"/>
   <stop stop-color="#BDBFC1" offset=".50196"/>
   <stop stop-color="#727376" offset="1"/>
  </linearGradient>
  <linearGradient id="id4" x1="9365.1" x2="12364" y1="9134.7" y2="9753.4" gradientUnits="userSpaceOnUse">
   <stop stop-color="#373435" offset="0"/>
   <stop stop-color="#727376" offset=".8902"/>
   <stop stop-color="#606062" offset="1"/>
  </linearGradient>
  <radialGradient id="id5" cx="10312" cy="11146" r="675.1" gradientTransform="matrix(2.2678 .38696 -.38696 2.2678 -8760 -18121)" gradientUnits="userSpaceOnUse">
   <stop stop-color="#FEFEFE" offset="0"/>
   <stop stop-color="#727376" offset=".52941"/>
   <stop stop-color="#FEFEFE" offset="1"/>
  </radialGradient>
  <radialGradient id="id6" cx="8712" cy="10479" r="2090.7" gradientTransform="matrix(1.9617 -.1981 .1981 1.9617 -10454 -8352)" gradientUnits="userSpaceOnUse">
   <stop stop-color="#373435" offset="0"/>
   <stop stop-color="#D2D3D5" offset=".5098"/>
   <stop stop-color="#373435" offset="1"/>
  </radialGradient>
 </defs>
 
  
  
  <ellipse class="fil0 str0" cx="9975" cy="8955" rx="2258" ry="2843"/>
  
   <g clip-path="url(#id1)">
    <polygon class="fil1" points="10560 10485 16303 9887 16291 9781"/>
    <polygon class="fil1" points="10560 10485 16293 9798 16282 9710"/>
    <polygon class="fil1" points="10560 10485 16284 9728 16272 9640"/>
    <polygon class="fil1" points="10560 10485 16275 9657 16261 9569"/>
    <polygon class="fil1" points="10560 10485 16264 9587 16250 9499"/>
    <polygon class="fil1" points="10560 10485 16253 9517 16237 9429"/>
    <polygon class="fil1" points="10560 10485 16240 9447 16224 9359"/>
    <polygon class="fil1" points="10560 10485 16227 9377 16209 9290"/>
    <polygon class="fil1" points="10560 10485 16213 9307 16194 9220"/>
    <polygon class="fil2" points="10560 10485 16198 9237 16178 9151"/>
    <polygon class="fil2" points="10560 10485 16182 9168 16161 9082"/>
    <polygon class="fil2" points="10560 10485 16166 9099 16144 9013"/>
    <polygon class="fil2" points="10560 10485 16148 9030 16125 8944"/>
    <polygon class="fil2" points="10560 10485 16130 8961 16106 8876"/>
    <polygon class="fil2" points="10560 10485 16110 8893 16085 8807"/>
    <polygon class="fil2" points="10560 10485 16090 8824 16064 8739"/>
    <polygon class="fil2" points="10560 10485 16070 8756 16042 8672"/>
    <polygon class="fil2" points="10560 10485 16048 8689 16020 8604"/>
    <polygon class="fil2" points="10560 10485 16025 8621 15996 8537"/>
    <polygon class="fil2" points="10560 10485 16002 8554 15972 8470"/>
    <polygon class="fil2" points="10560 10485 15978 8487 15946 8404"/>
    <polygon class="fil2" points="10560 10485 15953 8420 15920 8338"/>
    <polygon class="fil2" points="10560 10485 15927 8354 15894 8272"/>
    <polygon class="fil2" points="10560 10485 15900 8288 15866 8206"/>
    <polygon class="fil2" points="10560 10485 15873 8223 15837 8141"/>
    <polygon class="fil2" points="10560 10485 15845 8157 15808 8076"/>
    <polygon class="fil2" points="10560 10485 15815 8092 15778 8012"/>
    <polygon class="fil2" points="10560 10485 15786 8028 15747 7948"/>
    <polygon class="fil2" points="10560 10485 15755 7964 15716 7884"/>
    <polygon class="fil3" points="10560 10485 15723 7900 15683 7821"/>
    <polygon class="fil3" points="10560 10485 15691 7836 15650 7758"/>
    <polygon class="fil3" points="10560 10485 15658 7773 15616 7695"/>
    <polygon class="fil3" points="10560 10485 15624 7711 15581 7633"/>
    <polygon class="fil3" points="10560 10485 15590 7649 15546 7571"/>
    <polygon class="fil3" points="10560 10485 15555 7587 15509 7510"/>
    <polygon class="fil3" points="10560 10485 15518 7525 15472 7449"/>
    <polygon class="fil3" points="10560 10485 15482 7465 15435 7389"/>
    <polygon class="fil3" points="10560 10485 15444 7404 15396 7329"/>
    <polygon class="fil3" points="10560 10485 15406 7344 15357 7270"/>
    <polygon class="fil3" points="10560 10485 15367 7285 15317 7211"/>
    <polygon class="fil3" points="10560 10485 15327 7226 15276 7153"/>
    <polygon class="fil3" points="10560 10485 15286 7167 15235 7095"/>
    <polygon class="fil3" points="10560 10485 15245 7109 15193 7038"/>
    <polygon class="fil3" points="10560 10485 15203 7052 15150 6981"/>
    <polygon class="fil3" points="10560 10485 15161 6995 15106 6924"/>
    <polygon class="fil3" points="10560 10485 15117 6939 15062 6869"/>
    <polygon class="fil3" points="10560 10485 15073 6883 15017 6813"/>
    <polygon class="fil3" points="10560 10485 15029 6827 14972 6759"/>
    <polygon class="fil3" points="10560 10485 14983 6773 14926 6705"/>
    <polygon class="fil4" points="10560 10485 14937 6718 14879 6651"/>
    <polygon class="fil4" points="10560 10485 14890 6665 14831 6598"/>
    <polygon class="fil4" points="10560 10485 14843 6612 14783 6546"/>
    <polygon class="fil4" points="10560 10485 14795 6559 14734 6494"/>
    <polygon class="fil4" points="10560 10485 14746 6507 14685 6443"/>
    <polygon class="fil4" points="10560 10485 14697 6456 14634 6393"/>
    <polygon class="fil4" points="10560 10485 14647 6405 14584 6343"/>
    <polygon class="fil4" points="10560 10485 14596 6355 14532 6294"/>
    <polygon class="fil4" points="10560 10485 14545 6306 14480 6245"/>
    <polygon class="fil4" points="10560 10485 14493 6257 14428 6197"/>
    <polygon class="fil4" points="10560 10485 14441 6209 14375 6150"/>
    <polygon class="fil4" points="10560 10485 14388 6161 14321 6103"/>
    <polygon class="fil4" points="10560 10485 14335 6115 14267 6057"/>
    <polygon class="fil4" points="10560 10485 14280 6068 14212 6012"/>
    <polygon class="fil4" points="10560 10485 14226 6023 14157 5967"/>
    <polygon class="fil4" points="10560 10485 14170 5978 14101 5923"/>
    <polygon class="fil4" points="10560 10485 14115 5934 14044 5880"/>
    <polygon class="fil4" points="10560 10485 14058 5891 13987 5837"/>
    <polygon class="fil4" points="10560 10485 14001 5848 13930 5795"/>
    <polygon class="fil5" points="10560 10485 13944 5806 13872 5754"/>
    <polygon class="fil5" points="10560 10485 13886 5764 13813 5714"/>
    <polygon class="fil5" points="10560 10485 13828 5724 13754 5674"/>
    <polygon class="fil5" points="10560 10485 13769 5684 13695 5635"/>
    <polygon class="fil5" points="10560 10485 13710 5645 13635 5597"/>
    <polygon class="fil5" points="10560 10485 13650 5606 13574 5559"/>
    <polygon class="fil5" points="10560 10485 13589 5569 13513 5522"/>
    <polygon class="fil5" points="10560 10485 13529 5532 13452 5486"/>
    <polygon class="fil5" points="10560 10485 13467 5495 13390 5451"/>
    <polygon class="fil5" points="10560 10485 13406 5460 13328 5417"/>
    <polygon class="fil5" points="10560 10485 13343 5425 13265 5383"/>
    <polygon class="fil5" points="10560 10485 13281 5391 13202 5350"/>
    <polygon class="fil5" points="10560 10485 13218 5358 13139 5318"/>
    <polygon class="fil5" points="10560 10485 13155 5326 13075 5286"/>
    <polygon class="fil5" points="10560 10485 13091 5294 13011 5256"/>
    <polygon class="fil5" points="10560 10485 13027 5263 12946 5226"/>
    <polygon class="fil5" points="10560 10485 12962 5233 12881 5197"/>
    <polygon class="fil5" points="10560 10485 12897 5204 12816 5169"/>
    <polygon class="fil5" points="10560 10485 12832 5176 12750 5141"/>
    <polygon class="fil5" points="10560 10485 12767 5148 12684 5115"/>
    <polygon class="fil6" points="10560 10485 12701 5122 12618 5089"/>
    <polygon class="fil6" points="10560 10485 12634 5096 12551 5064"/>
    <polygon class="fil6" points="10560 10485 12568 5070 12484 5040"/>
    <polygon class="fil6" points="10560 10485 12501 5046 12417 5017"/>
    <polygon class="fil6" points="10560 10485 12434 5023 12350 4994"/>
    <polygon class="fil6" points="10560 10485 12366 5e3 12282 4973"/>
    <polygon class="fil6" points="10560 10485 12299 4978 12214 4952"/>
    <polygon class="fil6" points="10560 10485 12231 4957 12145 4932"/>
    <polygon class="fil6" points="10560 10485 12163 4937 12077 4913"/>
    <polygon class="fil6" points="10560 10485 12094 4918 12008 4894"/>
    <polygon class="fil6" points="10560 10485 12025 4899 11939 4877"/>
    <polygon class="fil6" points="10560 10485 11956 4881 11870 4860"/>
    <polygon class="fil6" points="10560 10485 11887 4865 11801 4845"/>
    <polygon class="fil6" points="10560 10485 11818 4849 11731 4830"/>
    <polygon class="fil6" points="10560 10485 11748 4834 11661 4816"/>
    <polygon class="fil6" points="10560 10485 11679 4819 11591 4803"/>
    <polygon class="fil6" points="10560 10485 11609 4806 11521 4790"/>
    <polygon class="fil6" points="10560 10485 11539 4794 11451 4779"/>
    <polygon class="fil6" points="10560 10485 11469 4782 11381 4768"/>
    <polygon class="fil7" points="10560 10485 11398 4771 11310 4759"/>
    <polygon class="fil7" points="10560 10485 11328 4761 11240 4750"/>
    <polygon class="fil7" points="10560 10485 11257 4752 11169 4742"/>
    <polygon class="fil7" points="10560 10485 11187 4744 11098 4735"/>
    <polygon class="fil7" points="10560 10485 11116 4737 11027 4729"/>
    <polygon class="fil7" points="10560 10485 11045 4730 10956 4723"/>
    <polygon class="fil7" points="10560 10485 10974 4725 10885 4719"/>
    <polygon class="fil7" points="10560 10485 10903 4720 10814 4715"/>
    <polygon class="fil7" points="10560 10485 10832 4716 10743 4713"/>
    <polygon class="fil7" points="10560 10485 10761 4713 10672 4711"/>
    <polygon class="fil7" points="10560 10485 10690 4711 10601 4710"/>
    <polygon class="fil7" points="10560 10485 10619 4710 10530 4710"/>
    <polygon class="fil7" points="10560 10485 10548 4710 10459 4711"/>
    <polygon class="fil7" points="10560 10485 10476 4711 10388 4712"/>
    <polygon class="fil7" points="10560 10485 10405 4712 10316 4715"/>
    <polygon class="fil7" points="10560 10485 10334 4714 10245 4718"/>
    <polygon class="fil7" points="10560 10485 10263 4718 10174 4723"/>
    <polygon class="fil7" points="10560 10485 10192 4722 10103 4728"/>
    <polygon class="fil7" points="10560 10485 10121 4727 10033 4734"/>
    <polygon class="fil7" points="10560 10485 10050 4732 9962 4741"/>
    <polygon class="fil8" points="10560 10485 9979 4739 9891 4749"/>
    <polygon class="fil8" points="10560 10485 9909 4747 9820 4757"/>
    <polygon class="fil8" points="10560 10485 9838 4755 9750 4767"/>
    <polygon class="fil8" points="10560 10485 9768 4765 9680 4777"/>
    <polygon class="fil8" points="10560 10485 9697 4775 9609 4789"/>
    <polygon class="fil8" points="10560 10485 9627 4786 9539 4801"/>
    <polygon class="fil8" points="10560 10485 9557 4798 9469 4814"/>
    <polygon class="fil8" points="10560 10485 9487 4811 9399 4828"/>
    <polygon class="fil8" points="10560 10485 9417 4824 9330 4842"/>
    <polygon class="fil8" points="10560 10485 9347 4839 9260 4858"/>
    <polygon class="fil8" points="10560 10485 9278 4854 9191 4874"/>
    <polygon class="fil8" points="10560 10485 9209 4870 9122 4892"/>
    <polygon class="fil8" points="10560 10485 9139 4887 9053 4910"/>
    <polygon class="fil8" points="10560 10485 9071 4905 8985 4929"/>
    <polygon class="fil8" points="10560 10485 9002 4924 8916 4949"/>
    <polygon class="fil8" points="10560 10485 8934 4944 8848 4969"/>
    <polygon class="fil8" points="10560 10485 8865 4964 8781 4991"/>
    <polygon class="fil8" points="10560 10485 8798 4985 8713 5013"/>
    <polygon class="fil8" points="10560 10485 8730 5007 8646 5036"/>
    <polygon class="fil8" points="10560 10485 8663 5030 8579 5060"/>
    <polygon class="fil9" points="10560 10485 8596 5054 8512 5085"/>
    <polygon class="fil9" points="10560 10485 8529 5079 8446 5111"/>
    <polygon class="fil9" points="10560 10485 8462 5104 8380 5137"/>
    <polygon class="fil9" points="10560 10485 8396 5131 8314 5164"/>
    <polygon class="fil9" points="10560 10485 8330 5158 8249 5192"/>
    <polygon class="fil9" points="10560 10485 8265 5185 8184 5221"/>
    <polygon class="fil9" points="10560 10485 8200 5214 8119 5251"/>
    <polygon class="fil9" points="10560 10485 8135 5244 8055 5281"/>
    <polygon class="fil9" points="10560 10485 8071 5274 7991 5313"/>
    <polygon class="fil9" points="10560 10485 8007 5305 7927 5345"/>
    <polygon class="fil9" points="10560 10485 7943 5337 7864 5378"/>
    <polygon class="fil9" points="10560 10485 7880 5369 7801 5411"/>
    <polygon class="fil9" points="10560 10485 7817 5403 7739 5445"/>
    <polygon class="fil9" points="10560 10485 7755 5437 7677 5481"/>
    <polygon class="fil9" points="10560 10485 7693 5472 7616 5517"/>
    <polygon class="fil9" points="10560 10485 7631 5508 7555 5553"/>
    <polygon class="fil9" points="10560 10485 7570 5544 7494 5591"/>
    <polygon class="fil9" points="10560 10485 7509 5581 7434 5629"/>
    <polygon class="fil9" points="10560 10485 7449 5619 7375 5668"/>
    <polygon class="fil10" points="10560 10485 7390 5658 7316 5707"/>
    <polygon class="fil10" points="10560 10485 7330 5697 7257 5747"/>
    <polygon class="fil10" points="10560 10485 7272 5737 7199 5789"/>
    <polygon class="fil10" points="10560 10485 7213 5778 7141 5830"/>
    <polygon class="fil10" points="10560 10485 7156 5820 7084 5873"/>
    <polygon class="fil10" points="10560 10485 7098 5862 7028 5916"/>
    <polygon class="fil10" points="10560 10485 7042 5905 6972 5960"/>
    <polygon class="fil10" points="10560 10485 6986 5949 6916 6004"/>
    <polygon class="fil10" points="10560 10485 6930 5993 6861 6050"/>
    <polygon class="fil10" points="10560 10485 6875 6038 6807 6095"/>
    <polygon class="fil10" points="10560 10485 6820 6084 6753 6142"/>
    <polygon class="fil10" points="10560 10485 6767 6130 6700 6189"/>
    <polygon class="fil10" points="10560 10485 6713 6177 6647 6237"/>
    <polygon class="fil10" points="10560 10485 6660 6225 6595 6286"/>
    <polygon class="fil10" points="10560 10485 6608 6274 6544 6335"/>
    <polygon class="fil10" points="10560 10485 6557 6323 6493 6385"/>
    <polygon class="fil10" points="10560 10485 6506 6372 6443 6435"/>
    <polygon class="fil10" points="10560 10485 6455 6422 6393 6486"/>
    <polygon class="fil10" points="10560 10485 6406 6473 6344 6538"/>
    <polygon class="fil10" points="10560 10485 6356 6525 6296 6590"/>
    <polygon class="fil11" points="10560 10485 6308 6577 6248 6643"/>
    <polygon class="fil11" points="10560 10485 6260 6630 6201 6696"/>
    <polygon class="fil11" points="10560 10485 6213 6683 6155 6750"/>
    <polygon class="fil11" points="10560 10485 6167 6737 6109 6805"/>
    <polygon class="fil11" points="10560 10485 6121 6791 6064 6860"/>
    <polygon class="fil11" points="10560 10485 6076 6846 6020 6915"/>
    <polygon class="fil11" points="10560 10485 6031 6902 5976 6972"/>
    <polygon class="fil11" points="10560 10485 5987 6958 5933 7028"/>
    <polygon class="fil11" points="10560 10485 5944 7014 5891 7086"/>
    <polygon class="fil11" points="10560 10485 5902 7071 5850 7143"/>
    <polygon class="fil11" points="10560 10485 5860 7129 5809 7202"/>
    <polygon class="fil11" points="10560 10485 5819 7187 5769 7260"/>
    <polygon class="fil11" points="10560 10485 5779 7246 5729 7320"/>
    <polygon class="fil11" points="10560 10485 5739 7305 5691 7379"/>
    <polygon class="fil11" points="10560 10485 5700 7365 5653 7440"/>
    <polygon class="fil11" points="10560 10485 5662 7425 5616 7500"/>
    <polygon class="fil11" points="10560 10485 5625 7485 5579 7561"/>
    <polygon class="fil11" points="10560 10485 5588 7546 5544 7623"/>
    <polygon class="fil11" points="10560 10485 5553 7608 5509 7685"/>
    <polygon class="fil12" points="10560 10485 5518 7670 5475 7748"/>
    <polygon class="fil12" points="10560 10485 5483 7732 5441 7810"/>
    <polygon class="fil12" points="10560 10485 5450 7795 5409 7874"/>
    <polygon class="fil12" points="10560 10485 5417 7858 5377 7937"/>
    <polygon class="fil12" points="10560 10485 5385 7921 5346 8001"/>
    <polygon class="fil12" points="10560 10485 5354 7985 5316 8066"/>
    <polygon class="fil12" points="10560 10485 5323 8050 5286 8131"/>
    <polygon class="fil12" points="10560 10485 5294 8114 5258 8196"/>
    <polygon class="fil12" points="10560 10485 5265 8179 5230 8261"/>
    <polygon class="fil12" points="10560 10485 5237 8245 5203 8327"/>
    <polygon class="fil12" points="10560 10485 5210 8311 5177 8393"/>
    <polygon class="fil12" points="10560 10485 5184 8377 5152 8460"/>
    <polygon class="fil12" points="10560 10485 5158 8443 5127 8526"/>
    <polygon class="fil12" points="10560 10485 5133 8510 5103 8593"/>
    <polygon class="fil12" points="10560 10485 5109 8577 5080 8661"/>
    <polygon class="fil12" points="10560 10485 5086 8644 5058 8728"/>
    <polygon class="fil12" points="10560 10485 5064 8712 5037 8796"/>
    <polygon class="fil12" points="10560 10485 5043 8779 5017 8865"/>
    <polygon class="fil12" points="10560 10485 5022 8848 4997 8933"/>
    <polygon class="fil12" points="10560 10485 5002 8916 4979 9002"/>
    <polygon class="fil13" points="10560 10485 4983 8984 4961 9070"/>
    <polygon class="fil13" points="10560 10485 4965 9053 4944 9140"/>
    <polygon class="fil13" points="10560 10485 4948 9122 4928 9209"/>
    <polygon class="fil13" points="10560 10485 4932 9192 4912 9278"/>
    <polygon class="fil13" points="10560 10485 4916 9261 4898 9348"/>
    <polygon class="fil13" points="10560 10485 4902 9331 4884 9418"/>
    <polygon class="fil13" points="10560 10485 4888 9400 4872 9488"/>
    <polygon class="fil13" points="10560 10485 4875 9470 4860 9558"/>
    <polygon class="fil13" points="10560 10485 4863 9540 4849 9628"/>
    <polygon class="fil13" points="10560 10485 4852 9611 4839 9699"/>
    <polygon class="fil13" points="10560 10485 4841 9681 4829 9769"/>
    <polygon class="fil13" points="10560 10485 4832 9752 4821 9840"/>
    <polygon class="fil13" points="10560 10485 4823 9822 4813 9911"/>
    <polygon class="fil13" points="10560 10485 4815 9893 4807 9981"/>
    <polygon class="fil13" points="10560 10485 4809 9964 4801 10052"/>
    <polygon class="fil13" points="10560 10485 4803 10035 4796 10123"/>
    <polygon class="fil13" points="10560 10485 4797 10106 4792 10194"/>
    <polygon class="fil13" points="10560 10485 4793 10177 4789 10265"/>
    <polygon class="fil13" points="10560 10485 4790 10248 4787 10337"/>
    <polygon class="fil13" points="10560 10485 4787 10319 4785 10408"/>
    <polygon class="fil14" points="10560 10485 4786 10390 4785 10479"/>
    <polygon class="fil14" points="10560 10485 4785 10461 4785 10550"/>
    <polygon class="fil14" points="10560 10485 4785 10532 4787 10621"/>
    <polygon class="fil14" points="10560 10485 4786 10603 4789 10692"/>
    <polygon class="fil14" points="10560 10485 4788 10674 4792 10763"/>
    <polygon class="fil14" points="10560 10485 4791 10746 4796 10834"/>
    <polygon class="fil14" points="10560 10485 4795 10817 4800 10905"/>
    <polygon class="fil14" points="10560 10485 4799 10888 4806 10976"/>
    <polygon class="fil14" points="10560 10485 4805 10959 4812 11047"/>
    <polygon class="fil14" points="10560 10485 4811 11029 4820 11118"/>
    <polygon class="fil14" points="10560 10485 4818 11100 4828 11189"/>
    <polygon class="fil14" points="10560 10485 4826 11171 4837 11259"/>
    <polygon class="fil14" points="10560 10485 4835 11241 4847 11330"/>
    <polygon class="fil14" points="10560 10485 4845 11312 4858 11400"/>
    <polygon class="fil14" points="10560 10485 4855 11382 4870 11470"/>
    <polygon class="fil14" points="10560 10485 4867 11452 4882 11540"/>
    <polygon class="fil14" points="10560 10485 4879 11523 4896 11610"/>
    <polygon class="fil14" points="10560 10485 4892 11592 4910 11680"/>
    <polygon class="fil14" points="10560 10485 4906 11662 4925 11749"/>
    <polygon class="fil13" points="10560 10485 4921 11732 4941 11818"/>
    <polygon class="fil13" points="10560 10485 4937 11801 4958 11888"/>
    <polygon class="fil13" points="10560 10485 4954 11870 4976 11956"/>
    <polygon class="fil13" points="10560 10485 4971 11939 4994 12025"/>
    <polygon class="fil13" points="10560 10485 4990 12008 5014 12094"/>
    <polygon class="fil13" points="10560 10485 5009 12076 5034 12162"/>
    <polygon class="fil13" points="10560 10485 5029 12145 5055 12230"/>
    <polygon class="fil13" points="10560 10485 5050 12213 5077 12297"/>
    <polygon class="fil13" points="10560 10485 5071 12280 5100 12365"/>
    <polygon class="fil13" points="10560 10485 5094 12348 5123 12432"/>
    <polygon class="fil13" points="10560 10485 5117 12415 5148 12499"/>
    <polygon class="fil13" points="10560 10485 5142 12482 5173 12565"/>
    <polygon class="fil13" points="10560 10485 5167 12549 5199 12631"/>
    <polygon class="fil13" points="10560 10485 5192 12615 5226 12697"/>
    <polygon class="fil13" points="10560 10485 5219 12681 5253 12763"/>
    <polygon class="fil13" points="10560 10485 5246 12747 5282 12828"/>
    <polygon class="fil13" points="10560 10485 5275 12812 5311 12893"/>
    <polygon class="fil13" points="10560 10485 5304 12877 5341 12957"/>
    <polygon class="fil13" points="10560 10485 5334 12941 5372 13022"/>
    <polygon class="fil13" points="10560 10485 5364 13005 5404 13085"/>
    <polygon class="fil12" points="10560 10485 5396 13069 5436 13149"/>
    <polygon class="fil12" points="10560 10485 5428 13133 5469 13212"/>
    <polygon class="fil12" points="10560 10485 5461 13196 5503 13274"/>
    <polygon class="fil12" points="10560 10485 5495 13258 5538 13336"/>
    <polygon class="fil12" points="10560 10485 5529 13321 5574 13398"/>
    <polygon class="fil12" points="10560 10485 5565 13382 5610 13459"/>
    <polygon class="fil12" points="10560 10485 5601 13444 5647 13520"/>
    <polygon class="fil12" points="10560 10485 5638 13504 5685 13580"/>
    <polygon class="fil12" points="10560 10485 5675 13565 5723 13640"/>
    <polygon class="fil12" points="10560 10485 5714 13625 5762 13699"/>
    <polygon class="fil12" points="10560 10485 5753 13684 5802 13758"/>
    <polygon class="fil12" points="10560 10485 5792 13743 5843 13816"/>
    <polygon class="fil12" points="10560 10485 5833 13802 5884 13874"/>
    <polygon class="fil12" points="10560 10485 5874 13860 5927 13932"/>
    <polygon class="fil12" points="10560 10485 5916 13917 5969 13988"/>
    <polygon class="fil12" points="10560 10485 5959 13974 6013 14045"/>
    <polygon class="fil12" points="10560 10485 6002 14031 6057 14100"/>
    <polygon class="fil12" points="10560 10485 6046 14086 6102 14156"/>
    <polygon class="fil12" points="10560 10485 6091 14142 6148 14210"/>
    <polygon class="fil12" points="10560 10485 6136 14197 6194 14264"/>
    <polygon class="fil11" points="10560 10485 6182 14251 6241 14318"/>
    <polygon class="fil11" points="10560 10485 6229 14304 6288 14371"/>
    <polygon class="fil11" points="10560 10485 6276 14357 6336 14423"/>
    <polygon class="fil11" points="10560 10485 6324 14410 6385 14475"/>
    <polygon class="fil11" points="10560 10485 6373 14462 6435 14526"/>
    <polygon class="fil11" points="10560 10485 6422 14513 6485 14576"/>
    <polygon class="fil11" points="10560 10485 6472 14564 6536 14626"/>
    <polygon class="fil11" points="10560 10485 6523 14614 6587 14676"/>
    <polygon class="fil11" points="10560 10485 6574 14663 6639 14724"/>
    <polygon class="fil11" points="10560 10485 6626 14712 6691 14772"/>
    <polygon class="fil11" points="10560 10485 6678 14760 6744 14820"/>
    <polygon class="fil11" points="10560 10485 6731 14808 6798 14866"/>
    <polygon class="fil11" points="10560 10485 6785 14854 6852 14912"/>
    <polygon class="fil11" points="10560 10485 6839 14901 6907 14958"/>
    <polygon class="fil11" points="10560 10485 6894 14946 6963 15002"/>
    <polygon class="fil11" points="10560 10485 6949 14991 7019 15046"/>
    <polygon class="fil11" points="10560 10485 7005 15035 7075 15089"/>
    <polygon class="fil11" points="10560 10485 7061 15079 7132 15132"/>
    <polygon class="fil11" points="10560 10485 7118 15121 7190 15174"/>
    <polygon class="fil10" points="10560 10485 7175 15163 7248 15215"/>
    <polygon class="fil10" points="10560 10485 7233 15205 7306 15256"/>
    <polygon class="fil10" points="10560 10485 7291 15245 7365 15295"/>
    <polygon class="fil10" points="10560 10485 7350 15285 7425 15334"/>
    <polygon class="fil10" points="10560 10485 7410 15324 7485 15372"/>
    <polygon class="fil10" points="10560 10485 7470 15363 7545 15410"/>
    <polygon class="fil10" points="10560 10485 7530 15401 7606 15447"/>
    <polygon class="fil10" points="10560 10485 7591 15438 7667 15483"/>
    <polygon class="fil10" points="10560 10485 7652 15474 7729 15518"/>
    <polygon class="fil10" points="10560 10485 7714 15509 7791 15552"/>
    <polygon class="fil10" points="10560 10485 7776 15544 7854 15586"/>
    <polygon class="fil10" points="10560 10485 7838 15578 7917 15619"/>
    <polygon class="fil10" points="10560 10485 7901 15611 7981 15651"/>
    <polygon class="fil10" points="10560 10485 7965 15643 8044 15683"/>
    <polygon class="fil10" points="10560 10485 8028 15675 8109 15713"/>
    <polygon class="fil10" points="10560 10485 8093 15706 8173 15743"/>
    <polygon class="fil10" points="10560 10485 8157 15736 8238 15772"/>
    <polygon class="fil10" points="10560 10485 8222 15765 8303 15800"/>
    <polygon class="fil10" points="10560 10485 8287 15793 8369 15828"/>
    <polygon class="fil10" points="10560 10485 8353 15821 8435 15854"/>
    <polygon class="fil9" points="10560 10485 8419 15848 8501 15880"/>
    <polygon class="fil9" points="10560 10485 8485 15874 8568 15905"/>
    <polygon class="fil9" points="10560 10485 8551 15899 8635 15929"/>
    <polygon class="fil9" points="10560 10485 8618 15923 8702 15952"/>
    <polygon class="fil9" points="10560 10485 8685 15947 8770 15975"/>
    <polygon class="fil9" points="10560 10485 8753 15969 8837 15997"/>
    <polygon class="fil9" points="10560 10485 8821 15991 8906 16017"/>
    <polygon class="fil9" points="10560 10485 8889 16012 8974 16037"/>
    <polygon class="fil9" points="10560 10485 8957 16032 9042 16056"/>
    <polygon class="fil9" points="10560 10485 9025 16052 9111 16075"/>
    <polygon class="fil9" points="10560 10485 9094 16070 9180 16092"/>
    <polygon class="fil9" points="10560 10485 9163 16088 9249 16109"/>
    <polygon class="fil9" points="10560 10485 9232 16104 9319 16124"/>
    <polygon class="fil9" points="10560 10485 9301 16120 9388 16139"/>
    <polygon class="fil9" points="10560 10485 9371 16135 9458 16153"/>
    <polygon class="fil9" points="10560 10485 9441 16150 9528 16166"/>
    <polygon class="fil9" points="10560 10485 9510 16163 9598 16179"/>
    <polygon class="fil9" points="10560 10485 9580 16176 9668 16190"/>
    <polygon class="fil9" points="10560 10485 9651 16187 9739 16201"/>
    <polygon class="fil8" points="10560 10485 9721 16198 9809 16210"/>
    <polygon class="fil8" points="10560 10485 9791 16208 9880 16219"/>
    <polygon class="fil8" points="10560 10485 9862 16217 9950 16227"/>
    <polygon class="fil8" points="10560 10485 9933 16225 10021 16234"/>
    <polygon class="fil8" points="10560 10485 10003 16232 10092 16240"/>
    <polygon class="fil8" points="10560 10485 10074 16239 10163 16246"/>
    <polygon class="fil8" points="10560 10485 10145 16244 10234 16250"/>
    <polygon class="fil8" points="10560 10485 10216 16249 10305 16254"/>
    <polygon class="fil8" points="10560 10485 10287 16253 10376 16256"/>
    <polygon class="fil8" points="10560 10485 10358 16256 10447 16258"/>
    <polygon class="fil8" points="10560 10485 10429 16258 10518 16259"/>
    <polygon class="fil8" points="10560 10485 10501 16259 10589 16259"/>
    <polygon class="fil8" points="10560 10485 10572 16259 10661 16258"/>
    <polygon class="fil8" points="10560 10485 10643 16259 10732 16257"/>
    <polygon class="fil8" points="10560 10485 10714 16257 10803 16254"/>
    <polygon class="fil8" points="10560 10485 10785 16255 10874 16251"/>
    <polygon class="fil8" points="10560 10485 10856 16252 10945 16246"/>
    <polygon class="fil8" points="10560 10485 10927 16247 11016 16241"/>
    <polygon class="fil8" points="10560 10485 10998 16242 11087 16235"/>
    <polygon class="fil8" points="10560 10485 11069 16237 11158 16228"/>
    <polygon class="fil7" points="10560 10485 11140 16230 11228 16220"/>
    <polygon class="fil7" points="10560 10485 11211 16222 11299 16212"/>
    <polygon class="fil7" points="10560 10485 11281 16214 11369 16202"/>
    <polygon class="fil7" points="10560 10485 11352 16205 11440 16192"/>
    <polygon class="fil7" points="10560 10485 11422 16194 11510 16181"/>
    <polygon class="fil7" points="10560 10485 11492 16183 11580 16168"/>
    <polygon class="fil7" points="10560 10485 11563 16171 11650 16155"/>
    <polygon class="fil7" points="10560 10485 11633 16159 11720 16142"/>
    <polygon class="fil7" points="10560 10485 11702 16145 11789 16127"/>
    <polygon class="fil7" points="10560 10485 11772 16130 11859 16111"/>
    <polygon class="fil7" points="10560 10485 11842 16115 11928 16095"/>
    <polygon class="fil7" points="10560 10485 11911 16099 11997 16078"/>
    <polygon class="fil7" points="10560 10485 11980 16082 12066 16059"/>
    <polygon class="fil7" points="10560 10485 12049 16064 12134 16040"/>
    <polygon class="fil7" points="10560 10485 12117 16045 12203 16021"/>
    <polygon class="fil7" points="10560 10485 12186 16025 12271 16000"/>
    <polygon class="fil7" points="10560 10485 12254 16005 12339 15978"/>
    <polygon class="fil7" points="10560 10485 12322 15984 12406 15956"/>
    <polygon class="fil7" points="10560 10485 12389 15962 12474 15933"/>
    <polygon class="fil7" points="10560 10485 12457 15939 12540 15909"/>
    <polygon class="fil6" points="10560 10485 12524 15915 12607 15884"/>
    <polygon class="fil6" points="10560 10485 12590 15890 12674 15858"/>
    <polygon class="fil6" points="10560 10485 12657 15865 12740 15832"/>
    <polygon class="fil6" points="10560 10485 12723 15839 12805 15805"/>
    <polygon class="fil6" points="10560 10485 12789 15812 12871 15777"/>
    <polygon class="fil6" points="10560 10485 12854 15784 12936 15748"/>
    <polygon class="fil6" points="10560 10485 12919 15755 13000 15718"/>
    <polygon class="fil6" points="10560 10485 12984 15726 13065 15688"/>
    <polygon class="fil6" points="10560 10485 13049 15695 13129 15656"/>
    <polygon class="fil6" points="10560 10485 13113 15664 13192 15624"/>
    <polygon class="fil6" points="10560 10485 13176 15632 13255 15592"/>
    <polygon class="fil6" points="10560 10485 13239 15600 13318 15558"/>
    <polygon class="fil6" points="10560 10485 13302 15566 13380 15524"/>
    <polygon class="fil6" points="10560 10485 13365 15532 13442 15488"/>
    <polygon class="fil6" points="10560 10485 13427 15497 13503 15453"/>
    <polygon class="fil6" points="10560 10485 13488 15462 13564 15416"/>
    <polygon class="fil6" points="10560 10485 13549 15425 13625 15379"/>
    <polygon class="fil6" points="10560 10485 13610 15388 13685 15340"/>
    <polygon class="fil6" points="10560 10485 13670 15350 13745 15302"/>
    <polygon class="fil5" points="10560 10485 13730 15311 13804 15262"/>
    <polygon class="fil5" points="10560 10485 13789 15272 13862 15222"/>
    <polygon class="fil5" points="10560 10485 13848 15232 13920 15181"/>
    <polygon class="fil5" points="10560 10485 13906 15191 13978 15139"/>
    <polygon class="fil5" points="10560 10485 13964 15149 14035 15096"/>
    <polygon class="fil5" points="10560 10485 14021 15107 14092 15053"/>
    <polygon class="fil5" points="10560 10485 14078 15064 14148 15009"/>
    <polygon class="fil5" points="10560 10485 14134 15020 14203 14965"/>
    <polygon class="fil5" points="10560 10485 14189 14976 14258 14920"/>
    <polygon class="fil5" points="10560 10485 14244 14931 14312 14874"/>
    <polygon class="fil5" points="10560 10485 14299 14885 14366 14827"/>
    <polygon class="fil5" points="10560 10485 14353 14839 14419 14780"/>
    <polygon class="fil5" points="10560 10485 14406 14792 14472 14732"/>
    <polygon class="fil5" points="10560 10485 14459 14744 14524 14683"/>
    <polygon class="fil5" points="10560 10485 14511 14696 14576 14634"/>
    <polygon class="fil5" points="10560 10485 14563 14647 14626 14584"/>
    <polygon class="fil5" points="10560 10485 14614 14597 14677 14534"/>
    <polygon class="fil5" points="10560 10485 14664 14547 14726 14483"/>
    <polygon class="fil5" points="10560 10485 14714 14496 14775 14431"/>
    <polygon class="fil5" points="10560 10485 14763 14444 14823 14379"/>
    <polygon class="fil4" points="10560 10485 14811 14392 14871 14326"/>
    <polygon class="fil4" points="10560 10485 14859 14340 14918 14273"/>
    <polygon class="fil4" points="10560 10485 14906 14286 14964 14219"/>
    <polygon class="fil4" points="10560 10485 14953 14232 15010 14164"/>
    <polygon class="fil4" points="10560 10485 14999 14178 15055 14109"/>
    <polygon class="fil4" points="10560 10485 15044 14123 15099 14054"/>
    <polygon class="fil4" points="10560 10485 15088 14068 15143 13997"/>
    <polygon class="fil4" points="10560 10485 15132 14011 15186 13941"/>
    <polygon class="fil4" points="10560 10485 15175 13955 15228 13883"/>
    <polygon class="fil4" points="10560 10485 15218 13898 15270 13826"/>
    <polygon class="fil4" points="10560 10485 15259 13840 15310 13767"/>
    <polygon class="fil4" points="10560 10485 15300 13782 15351 13709"/>
    <polygon class="fil4" points="10560 10485 15340 13723 15390 13649"/>
    <polygon class="fil4" points="10560 10485 15380 13664 15429 13590"/>
    <polygon class="fil4" points="10560 10485 15419 13605 15466 13529"/>
    <polygon class="fil4" points="10560 10485 15457 13544 15504 13469"/>
    <polygon class="fil4" points="10560 10485 15494 13484 15540 13408"/>
    <polygon class="fil4" points="10560 10485 15531 13423 15576 13346"/>
    <polygon class="fil4" points="10560 10485 15567 13361 15610 13284"/>
    <polygon class="fil3" points="10560 10485 15602 13299 15645 13222"/>
    <polygon class="fil3" points="10560 10485 15636 13237 15678 13159"/>
    <polygon class="fil3" points="10560 10485 15670 13174 15710 13095"/>
    <polygon class="fil3" points="10560 10485 15702 13111 15742 13032"/>
    <polygon class="fil3" points="10560 10485 15734 13048 15773 12968"/>
    <polygon class="fil3" points="10560 10485 15765 12984 15803 12903"/>
    <polygon class="fil3" points="10560 10485 15796 12919 15833 12839"/>
    <polygon class="fil3" points="10560 10485 15825 12855 15861 12773"/>
    <polygon class="fil3" points="10560 10485 15854 12790 15889 12708"/>
    <polygon class="fil3" points="10560 10485 15882 12724 15916 12642"/>
    <polygon class="fil3" points="10560 10485 15909 12659 15942 12576"/>
    <polygon class="fil3" points="10560 10485 15936 12592 15968 12509"/>
    <polygon class="fil3" points="10560 10485 15961 12526 15992 12443"/>
    <polygon class="fil3" points="10560 10485 15986 12459 16016 12376"/>
    <polygon class="fil3" points="10560 10485 16010 12392 16039 12308"/>
    <polygon class="fil3" points="10560 10485 16033 12325 16061 12241"/>
    <polygon class="fil3" points="10560 10485 16055 12258 16082 12173"/>
    <polygon class="fil3" points="10560 10485 16077 12190 16102 12105"/>
    <polygon class="fil3" points="10560 10485 16097 12122 16122 12036"/>
    <polygon class="fil3" points="10560 10485 16117 12053 16141 11968"/>
    <polygon class="fil2" points="10560 10485 16136 11985 16159 11899"/>
    <polygon class="fil2" points="10560 10485 16154 11916 16176 11830"/>
    <polygon class="fil2" points="10560 10485 16171 11847 16192 11760"/>
    <polygon class="fil2" points="10560 10485 16188 11778 16207 11691"/>
    <polygon class="fil2" points="10560 10485 16203 11708 16221 11621"/>
    <polygon class="fil2" points="10560 10485 16218 11639 16235 11551"/>
    <polygon class="fil2" points="10560 10485 16232 11569 16248 11481"/>
    <polygon class="fil2" points="10560 10485 16244 11499 16260 11411"/>
    <polygon class="fil2" points="10560 10485 16257 11429 16271 11341"/>
    <polygon class="fil2" points="10560 10485 16268 11358 16281 11270"/>
    <polygon class="fil2" points="10560 10485 16278 11288 16290 11200"/>
    <polygon class="fil2" points="10560 10485 16288 11218 16298 11129"/>
    <polygon class="fil2" points="10560 10485 16296 11147 16306 11058"/>
    <polygon class="fil2" points="10560 10485 16304 11076 16312 10988"/>
    <polygon class="fil2" points="10560 10485 16311 11005 16318 10917"/>
    <polygon class="fil2" points="10560 10485 16317 10934 16323 10846"/>
    <polygon class="fil2" points="10560 10485 16322 10864 16327 10775"/>
    <polygon class="fil2" points="10560 10485 16326 10792 16330 10704"/>
    <polygon class="fil2" points="10560 10485 16329 10721 16332 10633"/>
    <polygon class="fil2" points="10560 10485 16332 10650 16334 10561"/>
    <polygon class="fil1" points="10560 10485 16333 10579 16334 10490"/>
    <polygon class="fil1" points="10560 10485 16334 10508 16334 10419"/>
    <polygon class="fil1" points="10560 10485 16334 10437 16333 10348"/>
    <polygon class="fil1" points="10560 10485 16333 10366 16331 10277"/>
    <polygon class="fil1" points="10560 10485 16331 10295 16328 10206"/>
    <polygon class="fil1" points="10560 10485 16328 10224 16324 10135"/>
    <polygon class="fil1" points="10560 10485 16325 10153 16319 10064"/>
    <polygon class="fil1" points="10560 10485 16320 10082 16313 9993"/>
    <polygon class="fil1" points="10560 10485 16315 10011 16307 9922"/>
    <polygon class="fil1" points="10560 10485 16308 9940 16301 9869"/>
   </g>
  
  <path class="fil15" d="m17363 9296c4 9-1 18-12 26-14 10-62 29-143 58-75 26-123 41-146 44-19 3-34-5-46-23-43-70-71-107-82-108-9 0-80 23-211 69-88 32-135 51-139 57-6 12-7 43-1 95 5 47 1 75-12 84-16 10-75 33-175 68-80 29-123 35-128 20-5-14-5-201 0-561 5-390 7-604 6-643-1-21 3-33 11-36 15-5 37-12 67-20 31-8 54-14 68-19s35-13 62-25c26-11 47-20 60-25 10-3 22 2 37 16 45 46 185 207 421 484 237 279 358 425 363 439zm-804-516c-3 26-4 83-3 169 1 90 4 142 9 156 4 10 21 10 52 0 16-5 43-13 79-26 34-12 51-23 52-33 0-3-1-6-2-11-6-17-35-60-85-129-50-67-84-109-102-126z"/>
  <ellipse class="fil16 str1" transform="matrix(1.2557 1.2526 -1.2526 1.2557 10859 10644)" rx="272" ry="533"/>
  <ellipse class="fil14" transform="matrix(.46158 .46044 -.46044 .46158 10903 10357)" rx="272" ry="533"/>
  <path class="fil17" d="m11540 10194c-8 249-111 472-481 843-510 436-937 330-860 15 252 176 1243-197 1341-858z"/>
  <path class="fil18" d="m11402 7527c-1473-1191-4015 3779-1349 3997-1727-420-887-2860 383-3831 418-283 486-341 966-166z"/>
  <path class="fil19" d="m8886 9610c231-795 525-1433 1001-1895-605 363-988 1101-1001 1895z"/>
  <path class="fil20" d="m9732 11521c2190 186 2793-2792 1652-3950-242-11-331-121-512-211 1535-125 1805 4405-1140 4161z"/>
  <path class="fil15" d="m13790 9653c0 11-7 18-22 22-17 5-72 7-162 7-84 0-137-2-161-7-20-4-33-17-38-39-18-85-33-131-43-137-10-3-88-4-235-4-99 0-152 2-159 7-10 10-22 41-34 94-12 49-25 75-41 79-20 5-86 7-199 7-90 0-134-8-134-25 0-15 65-202 197-559 142-387 219-600 232-638 7-22 15-33 24-33 16 0 41 2 74 4 33 3 58 5 74 5s39-1 70-3 54-4 69-4c11 0 22 10 31 29 28 62 112 271 249 630 139 362 208 550 208 565zm-620-797c-12 26-33 82-62 167-31 91-46 144-46 160 0 11 17 16 52 18 18 1 47 1 88 1 38 0 59-4 63-14 1-3 1-6 1-12 0-19-12-72-38-158-26-85-45-138-58-162zm1732 622c0 9-6 22-19 37-107 127-250 191-427 191-182 0-330-62-443-186-110-120-165-272-165-455 0-177 54-328 162-451 113-130 256-194 430-194 189 0 337 57 444 174 12 12 18 24 18 34 0 11-21 52-61 123-41 71-66 111-77 120-5 5-10 7-17 7-3 0-18-12-44-35-32-28-62-50-93-66-46-23-94-35-143-35-86 0-155 32-206 96-47 60-71 133-71 221 0 89 24 163 71 223 51 65 120 98 206 98 50 0 99-11 144-33 30-15 60-35 91-61 26-22 40-33 43-33 6 0 11 3 17 9 9 11 35 47 76 109 42 65 64 101 64 107zm1268 170c0 13-3 20-8 23-2 2-10 3-24 4-36 4-86 6-150 6-91 0-145-2-161-6-16-3-24-11-24-23 0-46 2-115 6-208s6-161 6-208c0-22-6-36-19-39-20-5-90-7-212-7s-193 2-213 7c-13 3-20 16-20 39 0 46 2 114 5 204 3 91 4 159 4 205 0 17-8 27-23 30-19 4-74 6-165 6-78 0-129-2-150-6-17-3-25-11-25-27 0-63 3-158 9-285 5-127 8-222 8-286 0-67-3-169-8-305-6-135-9-237-9-304 0-13 6-20 18-20 18 0 45 1 82 3 36 2 63 3 81 3 19 0 47-1 85-3s66-3 84-3c10 0 15 6 15 16 0 44-3 109-9 197-6 87-9 152-9 196 0 20 6 32 17 36 15 4 89 7 224 7 124 0 197-3 217-7 14-4 20-16 20-36 0-42-2-106-6-191-4-84-6-148-6-191 0-18 7-27 22-27 17 0 42 1 77 3s61 3 78 3 43-1 78-3c34-2 61-3 78-3s25 7 25 21c0 67-2 169-8 304-5 135-8 237-8 304 0 64 3 159 9 286s9 222 9 285z"/>
  <path class="fil21" d="m16908 9851c-17 1-25-8-25-26 0-7 1-17 3-32 2-14 3-25 3-33 0-10-2-26-5-47s-4-37-4-47c0-12 9-21 26-28 42-16 122-58 242-125 52-38 131-93 236-167 5-4 14-8 25-13 6 2 13 6 22 13 19 20 50 49 92 86 24 14 59 35 104 65 14 9 21 17 21 25 0 7-7 16-18 27-75 70-187 137-336 200s-274 97-375 102h-11z"/>
  <path class="fil22" d="m12564 11846v-461h139l83 315 81-315h141v461h-87v-363l-91 363h-90l-90-363v363h-86zm536 0v-334h88v334h-88zm-15-377 44-94h99l-87 94h-56zm500 377h-81v-49c-14 19-30 33-49 43-18 10-37 14-56 14-39 0-71-15-99-46-27-31-41-74-41-130s13-99 40-129c27-29 60-44 101-44 37 0 70 16 97 46v-166h88v461zm-235-173c0 35 5 61 14 77 15 23 35 35 60 35 20 0 38-9 52-26 14-18 21-43 21-78 0-38-7-66-21-83-13-17-31-25-53-25-20 0-38 8-52 25-14 16-21 41-21 75zm322-206v-82h88v82h-88zm0 379v-334h88v334h-88zm244-231-79-14c9-33 24-57 46-73 22-15 55-23 98-23 40 0 69 5 88 14 20 9 33 21 41 35 8 15 12 41 12 79l-2 103c0 30 2 51 5 65 2 14 8 29 15 45h-87c-2-6-5-14-9-26-1-5-2-8-3-10-15 15-31 26-48 33-17 8-35 11-55 11-34 0-61-9-81-28-19-18-29-42-29-70 0-19 4-36 13-51 9-14 22-26 38-34 16-7 40-14 70-20 41-8 70-15 86-22v-9c0-17-4-29-13-37-8-7-24-10-47-10-16 0-28 3-37 9s-16 17-22 33zm119 71c-11 4-29 9-54 14-24 5-40 10-48 15-11 9-17 19-17 31 0 13 4 23 14 32 9 9 21 14 35 14 16 0 31-5 45-16 11-8 18-17 21-29 3-7 4-22 4-43v-18zm744 160h-100l-40-105h-185l-38 105h-99l179-461h99l184 461zm-170-183-64-170-62 170h126zm219 183v-461h88v461h-88zm332-334v70h-61v135c0 28 1 44 2 48 1 5 4 9 8 12s9 4 15 4c8 0 20-3 35-8l8 68c-21 9-44 13-70 13-16 0-30-2-43-8-13-5-22-12-28-20-6-9-10-21-12-35-2-10-3-31-3-63v-146h-41v-70h41v-66l88-52v118h61zm254 228 89 15c-12 33-30 57-54 74s-55 25-92 25c-58 0-101-19-128-57-22-30-33-68-33-115 0-55 14-99 43-130s65-47 110-47c49 0 88 16 117 49s42 83 41 151h-221c1 26 8 47 22 61 13 15 30 22 50 22 14 0 26-4 35-11 10-8 17-20 21-37zm6-89c-1-26-8-45-20-58-13-14-28-20-46-20-19 0-35 7-48 21-12 14-18 33-18 57h132zm244 195h-89v-334h82v47c14-22 27-37 38-44s24-10 38-10c21 0 40 6 59 17l-28 77c-15-10-28-15-41-15s-23 4-32 10c-8 7-15 19-20 37s-7 55-7 112v103zm469 0h-88v-170c0-36-2-60-5-70-4-11-10-19-19-25s-19-8-31-8c-15 0-29 4-41 12-13 8-21 20-26 33-4 14-6 40-6 77v151h-89v-334h82v49c29-37 66-56 111-56 19 0 37 3 53 10 17 8 29 16 37 27s14 24 18 37c3 14 4 34 4 60v207zm155-231-79-14c9-33 24-57 46-73 22-15 55-23 98-23 40 0 69 5 88 14s33 21 41 35c8 15 12 41 12 79l-2 103c0 30 2 51 5 65 2 14 8 29 15 45h-87c-2-6-5-14-9-26-1-5-2-8-3-10-15 15-31 26-48 33-17 8-35 11-55 11-34 0-61-9-81-28-20-18-29-42-29-70 0-19 4-36 13-51 9-14 22-26 38-34 16-7 40-14 70-20 41-8 70-15 86-22v-9c0-17-4-29-13-37-8-7-24-10-47-10-16 0-28 3-37 9s-16 17-22 33zm119 71c-11 4-29 9-54 14-24 5-40 10-48 15-11 9-17 19-17 31 0 13 4 23 14 32 9 9 21 14 35 14 16 0 31-5 45-16 11-8 18-17 21-29 3-7 4-22 4-43v-18zm326-174v70h-60v135c0 28 0 44 1 48 2 5 4 9 8 12s9 4 15 4c9 0 20-3 36-8l7 68c-20 9-43 13-69 13-16 0-30-2-43-8-13-5-22-12-28-20-6-9-10-21-13-35-2-10-2-31-2-63v-146h-41v-70h41v-66l88-52v118h60zm62-45v-82h88v82h-88zm0 379v-334h88v334h-88zm271 0-135-334h93l62 170 19 57c5-14 8-24 9-28 3-10 6-19 9-29l64-170h91l-133 334h-79zm331-231-80-14c9-33 25-57 47-73 22-15 55-23 98-23 39 0 69 5 88 14s33 21 41 35c8 15 12 41 12 79l-2 103c0 30 2 51 4 65 3 14 8 29 16 45h-87c-3-6-5-14-9-26-1-5-2-8-3-10-15 15-31 26-48 33-17 8-36 11-55 11-34 0-61-9-81-28-20-18-30-42-30-70 0-19 5-36 14-51 9-14 22-26 38-34 16-7 39-14 70-20 41-8 70-15 86-22v-9c0-17-5-29-13-37-8-7-24-10-47-10-16 0-28 3-37 9s-16 17-22 33zm119 71c-12 4-29 9-54 14s-41 10-48 15c-12 9-17 19-17 31 0 13 4 23 13 32 10 9 21 14 36 14 16 0 31-5 45-16 11-8 18-17 21-29 2-7 4-22 4-43v-18zm350-174h82v49c11-17 25-30 43-41 19-10 39-15 61-15 39 0 72 15 99 46 27 30 40 72 40 127 0 56-13 99-41 130-27 31-60 46-99 46-18 0-35-3-50-11-15-7-31-20-47-37v167h-88v-461zm87 162c0 38 7 65 22 83s33 27 54 27 38-8 51-25c14-16 21-43 21-81 0-35-7-61-21-78s-32-26-52-26c-22 0-40 9-54 26-14 16-21 41-21 74zm374-59-80-14c9-33 25-57 47-73 22-15 54-23 98-23 39 0 69 5 88 14s33 21 41 35c7 15 11 41 11 79l-1 103c0 30 1 51 4 65s8 29 16 45h-88c-2-6-5-14-8-26-1-5-2-8-3-10-15 15-31 26-48 33-18 8-36 11-55 11-34 0-61-9-81-28-20-18-30-42-30-70 0-19 5-36 14-51 9-14 21-26 38-34 16-7 39-14 70-20 41-8 70-15 85-22v-9c0-17-4-29-12-37-9-7-24-10-48-10-16 0-28 3-37 9-8 6-16 17-21 33zm118 71c-11 4-29 9-53 14-25 5-41 10-48 15-12 9-18 19-18 31 0 13 5 23 14 32s21 14 35 14c16 0 31-5 46-16 11-8 18-17 21-29 2-7 3-22 3-43v-18zm259 160h-89v-334h82v47c14-22 27-37 38-44s24-10 38-10c21 0 40 6 59 17l-28 77c-15-10-28-15-41-15s-23 4-32 10c-8 7-15 19-20 37s-7 55-7 112v103zm231-231-79-14c9-33 24-57 46-73 22-15 55-23 98-23 39 0 69 5 88 14s33 21 41 35c8 15 12 41 12 79l-2 103c0 30 2 51 5 65 2 14 8 29 15 45h-87c-2-6-5-14-9-26-1-5-2-8-3-10-15 15-31 26-48 33-17 8-35 11-55 11-34 0-61-9-81-28-20-18-29-42-29-70 0-19 4-36 13-51 9-14 22-26 38-34 16-7 39-14 70-20 41-8 70-15 86-22v-9c0-17-4-29-13-37-8-7-24-10-47-10-16 0-28 3-37 9s-16 17-22 33zm119 71c-12 4-29 9-54 14-24 5-41 10-48 15-12 9-17 19-17 31 0 13 4 23 14 32 9 9 20 14 35 14 16 0 31-5 45-16 11-8 18-17 21-29 3-7 4-22 4-43v-18zm505-174v70h-61v135c0 28 1 44 2 48 1 5 4 9 8 12s9 4 15 4c8 0 20-3 36-8l7 68c-21 9-44 13-70 13-16 0-30-2-43-8-12-5-22-12-28-20-6-9-10-21-12-35-2-10-3-31-3-63v-146h-40v-70h40v-66l88-52v118h61zm41 163c0-29 7-58 22-85 14-28 35-49 61-63 27-15 56-22 89-22 50 0 92 16 124 49s48 75 48 125-16 92-48 125c-33 34-74 50-123 50-31 0-60-7-88-20-28-14-49-35-63-61-15-27-22-60-22-98zm91 5c0 33 8 58 23 76 16 18 35 26 58 26s43-8 58-26c16-18 24-43 24-77 0-33-8-58-24-75-15-18-35-27-58-27s-42 9-58 27c-15 17-23 43-23 76zm629 166h-82v-49c-13 19-29 33-48 43s-37 14-56 14c-39 0-72-15-99-46s-41-74-41-130 13-99 40-129c27-29 60-44 101-44 37 0 70 16 97 46v-166h88v461zm-235-173c0 35 4 61 14 77 14 23 34 35 60 35 20 0 37-9 52-26 14-18 21-43 21-78 0-38-7-66-21-83s-31-25-53-25c-21 0-38 8-52 25-14 16-21 41-21 75zm301 2c0-29 7-58 22-85 14-28 35-49 61-63 27-15 56-22 89-22 51 0 92 16 124 49s48 75 48 125-16 92-48 125c-33 34-74 50-123 50-31 0-60-7-88-20-28-14-49-35-63-61-15-27-22-60-22-98zm91 5c0 33 8 58 23 76 16 18 36 26 59 26s42-8 57-26c16-18 24-43 24-77 0-33-8-58-24-75-15-18-34-27-57-27s-43 9-59 27c-15 17-23 43-23 76zm502 166v-461h88v461h-88zm399 0v-50c-12 18-28 32-48 43-20 10-41 15-63 15s-42-5-60-14c-18-10-31-24-39-42s-12-43-12-74v-212h88v154c0 47 2 76 5 86 3 11 9 19 18 25 9 7 20 10 33 10 15 0 29-4 41-13 12-8 20-18 24-31 5-12 7-42 7-90v-141h88v334h-82zm164 21 101 12c2 12 6 21 12 25 8 6 21 10 39 10 24 0 41-4 52-11 8-4 14-12 18-22 3-7 4-21 4-41v-48c-26 36-60 54-100 54-45 0-80-19-107-57-20-30-30-67-30-112 0-56 13-98 40-128 27-29 61-44 101-44 41 0 75 18 102 54v-47h82v299c0 40-3 69-10 89-6 19-15 34-27 46-12 11-27 19-47 26-20 6-44 9-74 9-57 0-97-10-121-29-23-20-35-44-35-74v-11zm79-195c0 36 7 61 21 78 14 16 30 25 51 25s39-9 54-26 22-41 22-74c0-35-7-61-21-77-14-17-32-25-54-25-21 0-38 8-52 24-14 17-21 42-21 75zm388-57-80-14c9-33 25-57 47-73 22-15 55-23 98-23 39 0 69 5 88 14s33 21 41 35c8 15 12 41 12 79l-2 103c0 30 2 51 4 65 3 14 8 29 16 45h-87c-3-6-5-14-9-26-1-5-2-8-3-10-15 15-31 26-48 33-17 8-36 11-55 11-34 0-61-9-81-28-20-18-30-42-30-70 0-19 5-36 14-51 9-14 22-26 38-34 16-7 39-14 70-20 41-8 70-15 86-22v-9c0-17-5-29-13-37-8-7-24-10-48-10-15 0-28 3-36 9-9 6-16 17-22 33zm119 71c-12 4-30 9-54 14-25 5-41 10-48 15-12 9-17 19-17 31 0 13 4 23 13 32 10 9 21 14 36 14s31-5 45-16c11-8 18-17 21-29 2-7 4-22 4-43v-18zm258 160h-88v-334h81v47c14-22 27-37 38-44 12-7 24-10 39-10 20 0 39 6 58 17l-27 77c-15-10-29-15-42-15-12 0-23 4-32 10-8 7-15 19-20 37s-7 55-7 112v103z"/>
  <path class="fil21" d="m13615 10953c0 10-6 22-19 38-110 131-256 196-439 196-187 0-339-63-455-191-113-123-170-279-170-468 0-182 56-336 167-463 115-133 263-200 441-200 195 0 347 60 457 179 12 13 18 25 18 35 0 12-21 54-62 127-42 73-68 114-79 123-5 5-11 7-18 7-3 0-18-12-45-36-32-28-64-51-95-67-48-24-97-36-148-36-88 0-158 33-211 99-49 61-73 136-73 226 0 91 24 168 73 230 53 67 123 100 211 100 52 0 102-11 149-34 30-15 61-36 93-62 26-23 41-34 44-34 6 0 12 3 18 9 9 11 35 49 78 113 43 66 65 103 65 109zm1346-426c0 187-59 343-179 470-121 128-275 192-461 192s-339-64-461-194c-121-126-180-282-180-468 0-187 59-343 180-470 122-130 275-195 461-195 183 0 337 65 460 195 120 128 180 285 180 470zm-340-2c0-90-28-167-82-229-57-66-130-99-218-99-85 0-157 34-215 102-57 66-86 142-86 228 0 91 27 168 80 229 57 64 130 96 221 96 84 0 156-33 215-101 56-65 85-140 85-226zm1817 603c0 19-8 28-26 28h-318c-17 0-26-10-26-31 0-61 2-151 7-272 4-121 6-212 6-272 0-17-3-27-9-28-7 4-47 96-121 277-43 107-86 213-130 319-5 13-13 21-22 24-3 0-15 1-36 1-30 0-49-6-55-18-32-66-75-162-128-288-57-133-99-229-127-288-1-3-4-6-8-10-4 5-7 14-7 26 0 59 2 147 5 264 3 118 5 206 5 265 0 21-9 31-26 31h-300c-12 0-19-2-22-6s-4-10-4-20c0-65 3-164 9-294 6-131 9-230 9-295 0-69-3-200-9-391-1-50-3-124-8-222l-1-15c-1-12 12-18 38-18 33 0 82-1 148-3s116-3 149-3c7 0 16 13 28 38l263 575c19 39 34 59 47 59 7 0 21-23 42-68 61-125 151-315 270-569 23-52 59-35 112-32 35 2 61 3 79 3 15 0 38-2 69-5s54-5 69-5c18 0 27 8 27 22 0 71-3 176-8 317s-7 246-7 317c0 65 3 163 8 294 6 131 8 228 8 293zm1087-251c0 26-6 73-16 142-11 75-20 119-29 133-7 12-17 18-29 18-6 0-15-1-27-3-44-6-172-9-383-9-46 0-115 0-206-1s-160-1-205-1c-20 0-30-8-30-26 0-67 4-168 11-303 8-134 11-235 11-302 0-68-3-196-11-382-2-48-5-120-10-215l-1-12c-1-14 7-21 23-21 44 0 111 1 200 3 89 3 156 4 200 4s110-1 198-4c88-2 154-3 198-3 31 0 49 12 54 35 3 13 8 55 14 125 7 69 10 112 10 127 0 12-6 18-18 18-4 0-10 0-19-1-160-12-303-19-430-19-32 0-52 7-59 23-3 7-4 30-4 69 0 41 6 67 18 81 10 11 29 17 58 17 6 0 18-1 35-1 18-1 32-2 44-2 75 0 152-2 229-6 7 0 23-2 50-4 20-3 36-4 49-4 14 0 21 7 21 21 0-13-5 33-16 138-5 47-8 95-8 143 0 12-8 18-26 18l-81-9c-34-3-112-5-234-5h-95c-25 0-39 6-43 18-1 3-1 22-1 56 0 45 3 75 8 88 11 23 49 36 116 40h131c32 0 79-2 142-8 63-5 110-8 141-8 13 0 20 11 20 32zm1191 270c0 4-6 7-18 9-23 4-80 6-172 6-78 0-131-2-159-6-14-1-21-3-23-4-4-2-8-8-12-18-10-24-23-59-40-105-24-59-61-148-111-265-10-23-35-36-74-39 18 1-13 2-92 2-9 0-13 15-13 46 0 41 3 102 11 183 7 80 11 142 11 182 0 10-3 17-8 18-9 1-17 1-25 2-36 2-91 4-166 4-86 0-137-2-155-6-17-3-26-13-26-27 0-66 3-166 9-299 7-133 10-233 10-300 0-253-6-451-17-593l-1-13c0-10 9-17 28-20 20-4 112-7 275-11 111-3 199-4 265-4 137 0 248 31 335 93 97 69 146 170 146 301 0 87-13 157-38 209s-71 103-138 152c-14 10-21 19-21 27 0 0 36 75 110 226 73 151 109 234 109 250zm-377-807c0-73-24-123-72-152-37-21-96-32-175-32-57 0-87 9-90 26-4 21-6 79-6 176 0 14 0 35 1 62s1 46 1 60c0 3 9 6 29 9 36 5 75 8 115 8 131 0 197-52 197-157zm1528 613c0 10-6 22-18 38-111 131-257 196-440 196-187 0-338-63-455-191-113-123-169-279-169-468 0-182 55-336 166-463 116-133 263-200 442-200 194 0 346 60 456 179 12 13 18 25 18 35 0 12-20 54-62 127s-68 114-79 123c-5 5-11 7-18 7-3 0-18-12-45-36-32-28-64-51-95-67-47-24-97-36-147-36-89 0-159 33-212 99-48 61-73 136-73 226 0 91 25 168 73 230 53 67 123 100 212 100 51 0 101-11 148-34 30-15 61-36 93-62 26-23 41-34 44-34 6 0 12 3 18 9 10 11 36 49 78 113 44 66 65 103 65 109zm463-461c0 71 1 177 5 319s6 248 6 319c0 12-3 20-8 23-2 0-9 2-24 3-39 5-91 8-156 8-88 0-143-3-167-8-18-3-27-12-27-27 0 9 3-44 8-159 11-243 16-402 16-478 0-64-2-161-6-289s-6-224-6-288c0-14 6-20 20-20 19 0 47 1 84 2 38 2 66 3 84 3 19 0 46-1 83-3 36-1 63-2 82-2 17 0 26 6 26 20 0 64-3 160-10 288s-10 225-10 289zm1432 35c0 187-59 343-179 470-121 128-275 192-462 192-185 0-339-64-461-194-120-126-180-282-180-468 0-187 60-343 180-470 122-130 276-195 461-195 184 0 338 65 460 195 121 128 181 285 181 470zm-341-2c0-90-27-167-81-229-57-66-130-99-219-99-84 0-156 34-215 102-56 66-85 142-85 228 0 91 27 168 80 229 56 64 130 96 220 96 85 0 157-33 216-101 56-65 84-140 84-226zm1089 217c0 121-51 226-154 313-90 77-199 125-328 146-5 1-8 1-11 1-14 0-45-42-92-126s-71-135-71-154c0-6 5-10 14-12 86-20 143-37 171-51 62-31 93-78 93-139 0-39-20-82-61-130-70-82-108-127-114-136-42-62-62-131-62-207 0-110 50-201 152-273 83-60 184-99 305-117 6-1 11-1 15-1 9 0 16 7 22 21 16 44 52 124 109 238 2 4 3 7 3 9 0 10-6 16-17 16-5 0-13-1-24-3-12-2-20-3-26-3-44 0-82 10-114 30-39 23-59 54-59 95 0 37 22 81 65 135 76 96 116 146 120 151 43 66 64 131 64 197z"/>
 
</svg>
